<?xml version="1.0" encoding="utf-8"?>
<!-- Generator: Adobe Illustrator 18.1.1, SVG Export Plug-In . SVG Version: 6.00 Build 0)  -->
<!DOCTYPE svg PUBLIC "-//W3C//DTD SVG 1.1//EN" "http://www.w3.org/Graphics/SVG/1.1/DTD/svg11.dtd">
<svg version="1.1" id="Layer_1" xmlns="http://www.w3.org/2000/svg" xmlns:xlink="http://www.w3.org/1999/xlink" x="0px" y="0px"
	 width="304px" height="562px" viewBox="0 0 304 562" enable-background="new 0 0 304 562" xml:space="preserve">
<path fill="#FFFFFF" stroke="#000000" stroke-width="10" stroke-miterlimit="10" d="M251.8,520.5c0,0,30.1-81.5-41-77.3l-59-0.2
	l-59,0.2c-71.1-5.1-41,77.3-41,77.3C15.5,475,20.3,430.9,24.8,412c2.2-8.9,8.3-16.5,16.8-20c23-9.5,43.9,16.5,43.9,16.5
	c-2.4-15.7-15.7-77.1-15.7-77.1c-13.3-53.1-5.3-122,2-163.8c8-46.2,29.5-89.1,62.3-122.6c10.3-10.6,17.6-16,17.6-16s7.3,5.4,17.6,16
	c32.8,33.5,54.3,76.4,62.3,122.6c7.3,41.8,15.3,110.7,2,163.8c0,0-13.3,61.4-15.7,77.1c0,0,20.9-25.9,43.9-16.5
	c8.5,3.5,14.7,11.1,16.8,20C283.4,430.9,288.2,475,251.8,520.5z M84.2,123.1h135.3c0,0-26.8-65.3-67.7-94.2
	C151.8,28.9,112.3,56.1,84.2,123.1z M97,420.8h110.2l21.4-66.6H75L97,420.8z M151.8,166.3c-19.6,0-35.5,31.1-35.5,69.5
	s15.9,69.5,35.5,69.5s35.5-31.1,35.5-69.5S171.4,166.3,151.8,166.3z"/>
</svg>
